<svg width="31" height="25" viewBox="0 0 31 25" fill="none" xmlns="http://www.w3.org/2000/svg">
<path d="M3.83317 24.1663C3.03109 24.1663 2.34446 23.8808 1.77327 23.3096C1.20209 22.7384 0.916504 22.0518 0.916504 21.2497V3.74967C0.916504 2.94759 1.20209 2.26096 1.77327 1.68978C2.34446 1.1186 3.03109 0.833008 3.83317 0.833008H27.1665C27.9686 0.833008 28.6552 1.1186 29.2264 1.68978C29.7976 2.26096 30.0832 2.94759 30.0832 3.74967V21.2497C30.0832 22.0518 29.7976 22.7384 29.2264 23.3096C28.6552 23.8808 27.9686 24.1663 27.1665 24.1663H3.83317ZM15.4998 13.958L3.83317 6.66634V21.2497H27.1665V6.66634L15.4998 13.958ZM15.4998 11.0413L27.1665 3.74967H3.83317L15.4998 11.0413ZM3.83317 6.66634V3.74967V21.2497V6.66634Z" fill="white"/>
</svg>
