<svg width="36" height="36" viewBox="0 0 36 36" fill="none" xmlns="http://www.w3.org/2000/svg">
<g clip-path="url(#clip0_55_470)">
<path d="M27.2197 6.82935C26.0489 6.82935 25.1709 7.70739 25.1709 8.87813C25.1709 10.0489 26.0489 10.9269 27.2197 10.9269C28.3904 10.9269 29.2685 10.0489 29.2685 8.87813C29.1709 7.70739 28.2928 6.82935 27.2197 6.82935Z" fill="white"/>
<path d="M18.1464 9.46338C13.4635 9.46338 9.56104 13.2683 9.56104 18.0487C9.56104 22.7317 13.3659 26.6341 18.1464 26.6341C22.8293 26.6341 26.7318 22.8292 26.7318 18.0487C26.6342 13.2683 22.8293 9.46338 18.1464 9.46338ZM18.1464 23.4146C15.122 23.4146 12.683 20.9756 12.683 17.9512C12.683 14.9268 15.122 12.4878 18.1464 12.4878C21.1708 12.4878 23.6098 14.9268 23.6098 17.9512C23.6098 20.9756 21.1708 23.4146 18.1464 23.4146Z" fill="white"/>
<path d="M24.8781 35.3172H11.0245C5.26838 35.3172 0.585449 30.6342 0.585449 24.8781V11.0245C0.585449 5.26838 5.26838 0.585449 11.0245 0.585449H24.8781C30.6342 0.585449 35.3172 5.26838 35.3172 11.0245V24.8781C35.3172 30.6342 30.6342 35.3172 24.8781 35.3172ZM11.0245 3.90252C7.12203 3.90252 3.90252 7.12203 3.90252 11.0245V24.8781C3.90252 28.8781 7.12203 32.0001 11.0245 32.0001H24.8781C28.8781 32.0001 32.0001 28.7806 32.0001 24.8781V11.0245C32.0001 7.02447 28.7806 3.90252 24.8781 3.90252H11.0245Z" fill="white"/>
</g>
<defs>
<clipPath id="clip0_55_470">
<rect width="36" height="36" fill="white"/>
</clipPath>
</defs>
</svg>
