<svg width="20" height="20" viewBox="0 0 20 20" fill="none" xmlns="http://www.w3.org/2000/svg">
<g clip-path="url(#clip0_49_454)">
<path d="M15.1221 3.79404C14.4717 3.79404 13.9839 4.28184 13.9839 4.93225C13.9839 5.58265 14.4717 6.07046 15.1221 6.07046C15.7725 6.07046 16.2603 5.58265 16.2603 4.93225C16.2061 4.28184 15.7183 3.79404 15.1221 3.79404Z" fill="#F3A9C0"/>
<path d="M10.0812 5.25745C7.47955 5.25745 5.31152 7.37127 5.31152 10.0271C5.31152 12.6287 7.42534 14.7967 10.0812 14.7967C12.6828 14.7967 14.8508 12.6829 14.8508 10.0271C14.7966 7.37127 12.6828 5.25745 10.0812 5.25745ZM10.0812 13.0081C8.40095 13.0081 7.04594 11.6531 7.04594 9.97289C7.04594 8.29268 8.40095 6.93766 10.0812 6.93766C11.7614 6.93766 13.1164 8.29268 13.1164 9.97289C13.1164 11.6531 11.7614 13.0081 10.0812 13.0081Z" fill="#F3A9C0"/>
<path d="M13.8211 19.6206H6.12465C2.92682 19.6206 0.325195 17.019 0.325195 13.8211V6.12465C0.325195 2.92682 2.92682 0.325195 6.12465 0.325195H13.8211C17.019 0.325195 19.6206 2.92682 19.6206 6.12465V13.8211C19.6206 17.019 17.019 19.6206 13.8211 19.6206ZM6.12465 2.16801C3.95663 2.16801 2.16801 3.95663 2.16801 6.12465V13.8211C2.16801 16.0434 3.95663 17.7778 6.12465 17.7778H13.8211C16.0434 17.7778 17.7778 15.9892 17.7778 13.8211V6.12465C17.7778 3.90243 15.9892 2.16801 13.8211 2.16801H6.12465Z" fill="#F3A9C0"/>
</g>
<defs>
<clipPath id="clip0_49_454">
<rect width="20" height="20" fill="white"/>
</clipPath>
</defs>
</svg>
