<svg width="21" height="20" viewBox="0 0 21 20" fill="none" xmlns="http://www.w3.org/2000/svg">
<path d="M19.2763 8.13008C19.1137 8.13008 18.9511 8.13008 18.7885 8.13008C17.0541 8.13008 15.3738 7.26287 14.3982 5.74525V13.7669C14.3982 17.0732 11.7424 19.729 8.43618 19.729C5.12995 19.729 2.47412 17.0732 2.47412 13.7669C2.47412 10.4607 5.12995 7.80487 8.43618 7.80487C8.54458 7.80487 8.70718 7.80487 8.81558 7.80487V10.8401C8.70718 10.8401 8.59878 10.7859 8.43618 10.7859C6.75596 10.7859 5.40095 12.1409 5.40095 13.8211C5.40095 15.5013 6.75596 16.8564 8.43618 16.8564C10.1164 16.8564 11.5798 15.5555 11.5798 13.8753L11.634 0.216797H14.4524C14.7234 2.71002 16.7289 4.66124 19.2763 4.87804V8.13008Z" fill="#F3A9C0"/>
</svg>
