<svg width="37" height="36" viewBox="0 0 37 36" fill="none" xmlns="http://www.w3.org/2000/svg">
<path d="M33.0974 14.634C32.8047 14.634 32.5121 14.634 32.2194 14.634C29.0974 14.634 26.073 13.0731 24.3169 10.3414V24.7804C24.3169 30.7316 19.5364 35.5121 13.5852 35.5121C7.634 35.5121 2.85352 30.7316 2.85352 24.7804C2.85352 18.8292 7.634 14.0487 13.5852 14.0487C13.7803 14.0487 14.073 14.0487 14.2681 14.0487V19.5121C14.073 19.5121 13.8779 19.4145 13.5852 19.4145C10.5608 19.4145 8.12181 21.8535 8.12181 24.8779C8.12181 27.9023 10.5608 30.3414 13.5852 30.3414C16.6096 30.3414 19.2438 27.9999 19.2438 24.9755L19.3413 0.390137H24.4145C24.9023 4.87794 28.5121 8.39014 33.0974 8.78038V14.634Z" fill="white"/>
</svg>
