<svg width="37" height="36" viewBox="0 0 37 36" fill="none" xmlns="http://www.w3.org/2000/svg">
<g clip-path="url(#clip0_55_466)">
<path d="M35.4627 7.12192C34.3896 7.60973 33.1213 7.90241 31.9505 8.09753C32.5359 7.99997 33.3164 7.02436 33.7066 6.53656C34.1944 5.95119 34.5847 5.1707 34.8774 4.39022C34.8774 4.29265 34.9749 4.29265 34.8774 4.19509C34.7798 4.19509 34.7798 4.19509 34.6823 4.19509C33.3164 4.87802 31.9505 5.46339 30.5847 5.75607C30.4871 5.75607 30.3896 5.75607 30.292 5.65851C30.1944 5.56095 30.0969 5.36583 29.9018 5.26826C29.3164 4.78046 28.6335 4.29265 27.853 3.99997C26.8774 3.60973 25.8042 3.41461 24.731 3.51217C23.7554 3.60973 22.6823 3.90241 21.8042 4.29265C20.9262 4.78046 20.0481 5.46339 19.4627 6.24387C18.7798 7.02436 18.292 7.99997 18.0969 9.07314C17.9018 10.0488 17.9018 11.0244 17.9993 12.0975C17.9993 12.2927 17.9993 12.2927 17.9018 12.2927C12.2432 11.4146 7.46274 9.36582 3.65786 5.07314C3.46274 5.07314 3.36518 5.07314 3.26762 5.26826C1.60908 7.80485 2.38957 11.8048 4.53591 13.7561C4.82859 14.0488 5.12128 14.2439 5.41396 14.5366C5.3164 14.5366 3.95054 14.439 2.68225 13.7561C2.38957 13.6585 2.29201 13.7561 2.29201 13.9512C2.29201 14.2439 2.29201 14.439 2.29201 14.7317C2.58469 17.2683 4.34079 19.6097 6.77981 20.5853C7.07249 20.6829 7.36518 20.7805 7.65786 20.878C7.07249 20.9756 6.58469 21.0731 4.92615 20.9756C4.73103 20.9756 4.63347 21.0731 4.73103 21.2683C5.90176 24.4878 8.43835 25.4634 10.3896 26.0487C10.6823 26.0487 10.8774 26.0487 11.1701 26.1463C10.4871 27.1219 8.34079 27.8048 7.26762 28.1951C5.41396 28.878 3.36518 29.1707 1.41396 28.9756C1.12128 28.9756 1.02371 28.9756 0.926153 28.9756C0.828592 29.0731 0.926153 29.0731 1.02371 29.1707C1.41396 29.4634 1.8042 29.6585 2.29201 29.8536C3.5603 30.5366 4.82859 31.0244 6.19445 31.4146C13.2188 33.3658 21.2188 31.9024 26.4871 26.6341C30.6823 22.5366 32.1457 16.7805 32.1457 11.1219C32.1457 10.9268 32.4383 10.7317 32.5359 10.6341C33.6091 9.85363 34.4871 8.87802 35.2676 7.80485C35.4627 7.51217 35.4627 7.31704 35.4627 7.21948C35.5603 7.02436 35.5603 7.12192 35.4627 7.12192Z" fill="white"/>
</g>
<defs>
<clipPath id="clip0_55_466">
<rect width="36" height="36" fill="white" transform="translate(0.34082)"/>
</clipPath>
</defs>
</svg>
