<svg width="21" height="20" viewBox="0 0 21 20" fill="none" xmlns="http://www.w3.org/2000/svg">
<g clip-path="url(#clip0_49_450)">
<path d="M20.146 3.95664C19.5498 4.22764 18.8452 4.39025 18.1947 4.49865C18.52 4.44445 18.9536 3.90244 19.1704 3.63144C19.4414 3.30623 19.6582 2.87263 19.8208 2.43903C19.8208 2.38482 19.875 2.38483 19.8208 2.33062C19.7666 2.33062 19.7666 2.33062 19.7124 2.33062C18.9536 2.71003 18.1947 3.03523 17.4359 3.19783C17.3817 3.19783 17.3275 3.19783 17.2733 3.14363C17.2191 3.08943 17.1649 2.98103 17.0565 2.92683C16.7313 2.65583 16.3519 2.38482 15.9183 2.22222C15.3763 2.00542 14.7801 1.89702 14.1839 1.95122C13.6419 2.00542 13.0457 2.16802 12.5579 2.38483C12.0701 2.65583 11.5823 3.03523 11.2571 3.46884C10.8777 3.90244 10.6067 4.44445 10.4983 5.04065C10.3899 5.58266 10.3899 6.12466 10.4441 6.72087C10.4441 6.82927 10.4441 6.82927 10.3899 6.82927C7.24624 6.34146 4.59041 5.20325 2.47659 2.81843C2.36819 2.81843 2.31399 2.81843 2.25979 2.92683C1.33838 4.33604 1.77198 6.55827 2.96439 7.64228C3.127 7.80488 3.2896 7.91328 3.4522 8.07588C3.398 8.07588 2.63919 8.02168 1.93458 7.64228C1.77198 7.58808 1.71778 7.64228 1.71778 7.75068C1.71778 7.91328 1.71778 8.02168 1.71778 8.18428C1.88038 9.5935 2.85599 10.8943 4.21101 11.4363C4.37361 11.4905 4.53621 11.5447 4.69881 11.5989C4.37361 11.6531 4.10261 11.7073 3.1812 11.6531C3.0728 11.6531 3.01859 11.7073 3.0728 11.8157C3.7232 13.6043 5.13242 14.1463 6.21643 14.4715C6.37903 14.4715 6.48743 14.4715 6.65003 14.5257C6.27063 15.0678 5.07822 15.4472 4.48201 15.664C3.4522 16.0434 2.31399 16.206 1.22998 16.0976C1.06738 16.0976 1.01317 16.0976 0.958974 16.0976C0.904773 16.1518 0.958974 16.1518 1.01317 16.206C1.22998 16.3686 1.44678 16.477 1.71778 16.5854C2.42239 16.9648 3.127 17.2358 3.8858 17.4526C7.78824 18.5366 12.2327 17.7236 15.1595 14.7967C17.4901 12.5203 18.3031 9.32249 18.3031 6.17886C18.3031 6.07046 18.4657 5.96206 18.5199 5.90786C19.1162 5.47426 19.604 4.93225 20.0376 4.33604C20.146 4.17344 20.146 4.06504 20.146 4.01084C20.2002 3.90244 20.2002 3.95664 20.146 3.95664Z" fill="#F3A9C0"/>
</g>
<defs>
<clipPath id="clip0_49_450">
<rect width="20" height="20" fill="white" transform="translate(0.633789)"/>
</clipPath>
</defs>
</svg>
