<svg width="37" height="36" viewBox="0 0 37 36" fill="none" xmlns="http://www.w3.org/2000/svg">
<g clip-path="url(#clip0_55_464)">
<path d="M36.2923 13.3658C36.2923 9.07308 32.7801 5.65845 28.5849 5.65845H8.78007C4.48739 5.65845 1.07275 9.17064 1.07275 13.3658V22.6341C1.07275 26.9267 4.58495 30.3414 8.78007 30.3414H28.5849C32.8776 30.3414 36.2923 26.8292 36.2923 22.6341V13.3658ZM24.6825 18.6341L15.8045 23.0243C15.4142 23.2194 14.2435 22.9267 14.2435 22.5365V13.4633C14.2435 13.0731 15.4142 12.7804 15.8045 12.9755L24.2923 17.5609C24.6825 17.9511 24.9752 18.4389 24.6825 18.6341Z" fill="white"/>
</g>
<defs>
<clipPath id="clip0_55_464">
<rect width="36" height="36" fill="white" transform="translate(0.682617)"/>
</clipPath>
</defs>
</svg>
