<svg width="21" height="20" viewBox="0 0 21 20" fill="none" xmlns="http://www.w3.org/2000/svg">
<g clip-path="url(#clip0_49_448)">
<path d="M20.0513 7.42549C20.0513 5.04066 18.1 3.14365 15.7694 3.14365H4.76671C2.38188 3.14365 0.484863 5.09487 0.484863 7.42549V12.5745C0.484863 14.9594 2.43608 16.8564 4.76671 16.8564H15.7694C18.1542 16.8564 20.0513 14.9052 20.0513 12.5745V7.42549ZM13.6014 10.3523L8.66915 12.7913C8.45234 12.8997 7.80194 12.7371 7.80194 12.5203V7.47969C7.80194 7.26289 8.45234 7.10029 8.66915 7.20869L13.3846 9.75611C13.6014 9.97291 13.764 10.2439 13.6014 10.3523Z" fill="#F3A9C0"/>
</g>
<defs>
<clipPath id="clip0_49_448">
<rect width="20" height="20" fill="white" transform="translate(0.268066)"/>
</clipPath>
</defs>
</svg>
